<?xml version="1.0" encoding="utf-8"?>
<!-- Generator: Adobe Illustrator 16.0.0, SVG Export Plug-In . SVG Version: 6.00 Build 0)  -->
<!DOCTYPE svg PUBLIC "-//W3C//DTD SVG 1.1//EN" "http://www.w3.org/Graphics/SVG/1.1/DTD/svg11.dtd">
<svg version="1.1" xmlns="http://www.w3.org/2000/svg" xmlns:xlink="http://www.w3.org/1999/xlink" x="0px" y="0px" width="100px"
	 height="100px" viewBox="0 0 100 100" enable-background="new 0 0 100 100" xml:space="preserve">
<g id="Close">
	<circle fill="none" stroke="#000000" stroke-width="4" stroke-miterlimit="10" cx="50" cy="50" r="45"/>
	<line fill="none" stroke="#000000" stroke-width="3.64" stroke-miterlimit="10" x1="25" y1="25" x2="75" y2="75"/>
	<line fill="none" stroke="#000000" stroke-width="3.64" stroke-miterlimit="10" x1="75" y1="25" x2="25" y2="75"/>
</g>
<g id="Add">
	<circle fill="none" stroke="#000000" stroke-width="4" stroke-miterlimit="10" cx="170" cy="50" r="45"/>
	<line fill="none" stroke="#000000" stroke-width="4" stroke-miterlimit="10" x1="170" y1="15" x2="170" y2="85"/>
	<line fill="none" stroke="#000000" stroke-width="4" stroke-miterlimit="10" x1="205" y1="50" x2="135" y2="50"/>
</g>
<g id="Edit">
	<circle fill="none" stroke="#000000" stroke-width="4" stroke-miterlimit="10" cx="290" cy="50" r="45"/>
	<line fill="none" stroke="#000000" stroke-width="12" stroke-miterlimit="10" x1="314.749" y1="25.251" x2="277.749" y2="62.251"/>
	<g>
		<g>
			<line fill="none" stroke="#000000" stroke-width="12" stroke-miterlimit="10" x1="275.842" y1="64.23" x2="270.73" y2="69.053"/>
			<g>
				<polygon points="267.897,63.499 264.467,74.962 276.11,72.203 				"/>
			</g>
		</g>
	</g>
	<g>
		<path d="M285.531,73.469c0,0,0.251-0.656,0.789-1.479c0.262-0.418,0.595-0.879,0.978-1.346c0.197-0.229,0.382-0.483,0.604-0.707
			c0.217-0.229,0.437-0.464,0.656-0.697c0.467-0.44,0.93-0.885,1.405-1.26c0.468-0.382,0.929-0.715,1.347-0.978
			c0.823-0.538,1.478-0.79,1.478-0.79l0.07,0.07c0,0-1.796,1.832-3.593,3.664c-1.832,1.796-3.664,3.593-3.664,3.593L285.531,73.469z
			"/>
	</g>
	<g>
		<path d="M292.602,65.955c0,0,0.656,0.251,1.479,0.789c0.418,0.262,0.879,0.595,1.346,0.978c0.229,0.197,0.483,0.382,0.707,0.604
			c0.229,0.217,0.464,0.437,0.697,0.656c0.44,0.467,0.885,0.929,1.26,1.405c0.382,0.468,0.715,0.929,0.978,1.347
			c0.538,0.823,0.79,1.478,0.79,1.478l-0.07,0.07c0,0-1.832-1.796-3.664-3.593c-1.796-1.832-3.593-3.664-3.593-3.664L292.602,65.955
			z"/>
	</g>
	<g>
		<path d="M299.531,73.469c0,0,0.251-0.656,0.789-1.479c0.262-0.418,0.595-0.879,0.978-1.346c0.197-0.229,0.382-0.483,0.604-0.707
			c0.217-0.229,0.437-0.464,0.656-0.697c0.467-0.44,0.93-0.885,1.405-1.26c0.468-0.382,0.929-0.715,1.347-0.978
			c0.823-0.538,1.478-0.79,1.478-0.79l0.07,0.07c0,0-1.796,1.832-3.593,3.664c-1.832,1.796-3.664,3.593-3.664,3.593L299.531,73.469z
			"/>
	</g>
	<g>
		<path d="M306.602,65.955c0,0,0.656,0.251,1.479,0.789c0.418,0.262,0.879,0.595,1.346,0.978c0.229,0.197,0.483,0.382,0.707,0.604
			c0.229,0.217,0.464,0.437,0.697,0.656c0.44,0.467,0.885,0.929,1.26,1.405c0.382,0.468,0.715,0.929,0.978,1.347
			c0.538,0.823,0.79,1.478,0.79,1.478l-0.07,0.07c0,0-1.832-1.796-3.664-3.593c-1.796-1.832-3.593-3.664-3.593-3.664L306.602,65.955
			z"/>
	</g>
	<g>
		<path d="M313.531,73.469c0,0,0.251-0.656,0.789-1.479c0.262-0.418,0.595-0.879,0.978-1.346c0.197-0.229,0.382-0.483,0.604-0.707
			c0.217-0.229,0.437-0.464,0.656-0.697c0.467-0.44,0.93-0.885,1.405-1.26c0.468-0.382,0.929-0.715,1.347-0.978
			c0.823-0.538,1.478-0.79,1.478-0.79l0.07,0.07c0,0-1.796,1.832-3.593,3.664c-1.832,1.796-3.664,3.593-3.664,3.593L313.531,73.469z
			"/>
	</g>
</g>
</svg>
