<?xml version="1.0" encoding="utf-8"?>
<!-- Generator: Adobe Illustrator 16.0.0, SVG Export Plug-In . SVG Version: 6.00 Build 0)  -->
<!DOCTYPE svg PUBLIC "-//W3C//DTD SVG 1.1//EN" "http://www.w3.org/Graphics/SVG/1.1/DTD/svg11.dtd">
<svg version="1.1" id="Layer_1" xmlns="http://www.w3.org/2000/svg" xmlns:xlink="http://www.w3.org/1999/xlink" x="0px" y="0px"
	 width="100px" height="100px" viewBox="0 134.5 100 100" enable-background="new 0 134.5 100 100" xml:space="preserve">
<g id="Close">
	<circle fill="none" stroke="#AB4C4A" stroke-width="4" stroke-miterlimit="10" cx="50" cy="50" r="45"/>
	<line fill="none" stroke="#AB4C4A" stroke-width="3.64" stroke-miterlimit="10" x1="25" y1="25" x2="75" y2="75"/>
	<line fill="none" stroke="#AB4C4A" stroke-width="3.64" stroke-miterlimit="10" x1="75" y1="25" x2="25" y2="75"/>
</g>
<g id="Add">
	<circle fill="none" stroke="#D4AF34" stroke-width="4" stroke-miterlimit="10" cx="170" cy="50" r="45"/>
	<line fill="none" stroke="#D4AF34" stroke-width="4" stroke-miterlimit="10" x1="170" y1="15" x2="170" y2="85"/>
	<line fill="none" stroke="#D4AF34" stroke-width="4" stroke-miterlimit="10" x1="205" y1="50" x2="135" y2="50"/>
</g>
<g id="Edit">
	<circle fill="none" stroke="#D4AF34" stroke-width="4" stroke-miterlimit="10" cx="290" cy="50" r="45"/>
	<line fill="none" stroke="#D4AF34" stroke-width="12" stroke-miterlimit="10" x1="314.749" y1="25.251" x2="277.749" y2="62.251"/>
	<g>
		<g>
			<line fill="none" stroke="#D4AF34" stroke-width="12" stroke-miterlimit="10" x1="275.842" y1="64.23" x2="270.73" y2="69.053"/>
			<g>
				<polygon fill="#D4AF34" points="267.896,63.499 264.467,74.962 276.109,72.203 				"/>
			</g>
		</g>
	</g>
	<g>
		<path fill="#D4AF34" d="M285.531,73.469c0,0,0.251-0.656,0.789-1.479c0.262-0.418,0.595-0.879,0.978-1.346
			c0.197-0.229,0.382-0.483,0.604-0.707c0.217-0.229,0.437-0.465,0.656-0.697c0.467-0.44,0.93-0.885,1.404-1.26
			c0.469-0.383,0.93-0.715,1.348-0.979c0.822-0.538,1.478-0.79,1.478-0.79l0.069,0.07c0,0-1.795,1.832-3.592,3.663
			c-1.832,1.797-3.664,3.594-3.664,3.594L285.531,73.469z"/>
	</g>
	<g>
		<path fill="#D4AF34" d="M292.602,65.955c0,0,0.656,0.251,1.479,0.789c0.418,0.262,0.879,0.595,1.346,0.979
			c0.229,0.196,0.483,0.381,0.707,0.604c0.229,0.217,0.464,0.438,0.697,0.656c0.44,0.467,0.885,0.929,1.26,1.404
			c0.382,0.469,0.716,0.93,0.978,1.348c0.539,0.822,0.791,1.478,0.791,1.478l-0.07,0.07c0,0-1.832-1.796-3.664-3.593
			c-1.796-1.832-3.593-3.664-3.593-3.664L292.602,65.955z"/>
	</g>
	<g>
		<path fill="#D4AF34" d="M299.531,73.469c0,0,0.251-0.656,0.789-1.479c0.262-0.418,0.595-0.879,0.978-1.346
			c0.197-0.229,0.382-0.483,0.604-0.707c0.217-0.229,0.437-0.465,0.656-0.697c0.467-0.44,0.93-0.885,1.404-1.26
			c0.469-0.383,0.93-0.715,1.348-0.979c0.822-0.538,1.478-0.79,1.478-0.79l0.07,0.07c0,0-1.796,1.832-3.593,3.663
			c-1.832,1.797-3.664,3.594-3.664,3.594L299.531,73.469z"/>
	</g>
	<g>
		<path fill="#D4AF34" d="M306.602,65.955c0,0,0.656,0.251,1.479,0.789c0.418,0.262,0.879,0.595,1.346,0.979
			c0.229,0.196,0.483,0.381,0.707,0.604c0.229,0.217,0.464,0.438,0.697,0.656c0.44,0.467,0.885,0.929,1.26,1.404
			c0.382,0.469,0.715,0.93,0.979,1.348c0.538,0.822,0.79,1.478,0.79,1.478l-0.07,0.07c0,0-1.832-1.796-3.664-3.593
			c-1.796-1.832-3.593-3.664-3.593-3.664L306.602,65.955z"/>
	</g>
	<g>
		<path fill="#D4AF34" d="M313.531,73.469c0,0,0.251-0.656,0.789-1.479c0.262-0.418,0.595-0.879,0.978-1.346
			c0.197-0.229,0.382-0.483,0.604-0.707c0.217-0.229,0.437-0.465,0.655-0.697c0.468-0.44,0.931-0.885,1.405-1.26
			c0.468-0.383,0.929-0.715,1.347-0.979c0.823-0.538,1.479-0.79,1.479-0.79l0.07,0.07c0,0-1.796,1.832-3.594,3.663
			c-1.832,1.797-3.664,3.594-3.664,3.594L313.531,73.469z"/>
	</g>
</g>
<g id="Menu">
	<rect y="134.5" display="none" fill="#191616" width="100" height="100"/>
	<circle fill="none" stroke="#FFFFFF" stroke-width="4" stroke-miterlimit="10" cx="50" cy="184.5" r="45"/>
</g>
<circle fill="#FFFFFF" cx="50" cy="184.5" r="5.25"/>
<circle fill="#FFFFFF" cx="50" cy="164.5" r="5.5"/>
<circle fill="#FFFFFF" cx="50" cy="204.5" r="5.5"/>
</svg>
